<?xml version="1.0" encoding="UTF-8" standalone="no"?>
<svg
   width="512"
   height="512"
   version="1.1"
   id="svg1"
   sodipodi:docname="bluesky.svg"
   inkscape:version="1.4 (86a8ad7, 2024-10-11)"
   viewBox="0 0 512 512"
   xmlns:inkscape="http://www.inkscape.org/namespaces/inkscape"
   xmlns:sodipodi="http://sodipodi.sourceforge.net/DTD/sodipodi-0.dtd"
   xmlns="http://www.w3.org/2000/svg"
   xmlns:svg="http://www.w3.org/2000/svg">
  <sodipodi:namedview
     id="namedview1"
     pagecolor="#ffffff"
     bordercolor="#000000"
     borderopacity="0.25"
     inkscape:showpageshadow="2"
     inkscape:pageopacity="0.0"
     inkscape:pagecheckerboard="0"
     inkscape:deskcolor="#d1d1d1"
     inkscape:zoom="2.1813084"
     inkscape:cx="300.04927"
     inkscape:cy="267.5"
     inkscape:window-width="2560"
     inkscape:window-height="1369"
     inkscape:window-x="1912"
     inkscape:window-y="-8"
     inkscape:window-maximized="1"
     inkscape:current-layer="svg1" />
  <defs
     id="defs1" />
  <path
     d="M 256.23563,230.14041 C 233.86325,180.99366 173.17758,89.195307 116.68661,44.015405 62.572593,0.73461954 41.878615,8.1855938 28.45825,15.161548 12.797759,23.247006 10.001,50.515375 10.001,66.528274 c 0,16.012898 7.690535,131.589236 12.864582,150.773106 16.779705,63.73267 76.2068,85.29357 131.016818,78.31761 2.79659,-0.47561 5.59318,-0.95122 8.52965,-1.26829 -2.79659,0.47562 -5.73297,0.95123 -8.52965,1.26829 C 73.621109,309.09492 2.172454,342.22877 95.853262,460.34401 198.76652,581.15135 236.94045,434.50215 256.52032,359.99241 c 19.57561,74.35461 42.08821,215.77281 158.70397,100.3516 87.67597,-100.3516 24.05077,-151.24524 -56.21138,-164.72502 -2.79659,-0.31707 -5.73297,-0.79268 -8.52964,-1.26829 2.93638,0.47562 5.73297,0.79269 8.52964,1.26829 54.81257,6.97567 114.37734,-14.58591 131.01682,-78.31761 5.03383,-19.34189 12.86459,-134.759245 12.86459,-150.773106 0,-16.013862 -2.79659,-43.280786 -18.45726,-51.366726 C 470.87393,8.1858829 450.31847,0.73461954 396.20871,44.015405 339.29878,89.35718 278.61055,180.99077 256.24328,230.14041 Z"
     fill="#1185fe"
     id="path1"
     style="fill:#000000;stroke-width:0.904891" />
</svg>
