<?xml version="1.0" encoding="UTF-8" standalone="no"?>
<svg
   width="512"
   height="512"
   version="1.1"
   id="svg1"
   sodipodi:docname="bluesky.svg"
   inkscape:version="1.4 (86a8ad7, 2024-10-11)"
   viewBox="0 0 512 512"
   xmlns:inkscape="http://www.inkscape.org/namespaces/inkscape"
   xmlns:sodipodi="http://sodipodi.sourceforge.net/DTD/sodipodi-0.dtd"
   xmlns="http://www.w3.org/2000/svg"
   xmlns:svg="http://www.w3.org/2000/svg">
  <defs
     id="defs1" />
  <sodipodi:namedview
     id="namedview1"
     pagecolor="#ffffff"
     bordercolor="#000000"
     borderopacity="0.25"
     inkscape:showpageshadow="2"
     inkscape:pageopacity="0.0"
     inkscape:pagecheckerboard="0"
     inkscape:deskcolor="#d1d1d1"
     inkscape:zoom="2.1813084"
     inkscape:cx="299.59083"
     inkscape:cy="267.5"
     inkscape:window-width="2560"
     inkscape:window-height="1369"
     inkscape:window-x="1912"
     inkscape:window-y="-8"
     inkscape:window-maximized="1"
     inkscape:current-layer="svg1" />
  <path
     d="M 254.40057,239.02067 C 231.89184,195.40968 170.83629,113.95127 114.00102,73.860311 59.557186,35.454566 38.737084,42.066281 25.234924,48.256481 9.4789837,55.431214 6.6651787,79.628141 6.6651787,93.837386 c 0,14.209254 7.7374083,116.767354 12.9429903,133.790404 16.881975,56.55398 76.671267,75.68631 131.815351,69.49611 2.81363,-0.42204 5.62727,-0.84408 8.58163,-1.12544 -2.81363,0.42205 -5.76791,0.84408 -8.58163,1.12544 C 70.673046,309.08193 -1.2110813,338.48367 93.040696,443.2947 196.5812,550.4946 234.9878,420.3636 254.687,354.24645 c 19.69492,65.9795 42.34474,191.4687 159.67126,89.04825 88.21035,-89.04825 24.19735,-134.20935 -56.55398,-146.1708 -2.81363,-0.28137 -5.76792,-0.7034 -8.58163,-1.12544 2.95427,0.42205 5.76791,0.7034 8.58163,1.12544 55.14665,6.18994 115.07445,-12.94299 131.81535,-69.49611 5.06451,-17.16327 12.94299,-119.5803 12.94299,-133.790404 0,-14.2101 -2.81363,-38.405745 -18.56974,-45.580905 -13.6458,-6.189943 -34.32654,-12.801915 -88.7661,25.60383 C 337.96999,114.09491 276.91188,195.40712 254.40827,239.02067 Z"
     fill="#1185fe"
     id="path1"
     style="fill:#000000;stroke-width:0.855" />
</svg>
