<svg width="512" height="512" viewBox="0 0 512 512" xmlns="http://www.w3.org/2000/svg"><path class="ionicon" d="M254.4 239.02c-22.508-43.61-83.564-125.069-140.399-165.16-54.444-38.405-75.264-31.794-88.766-25.604-15.756 7.175-18.57 31.372-18.57 45.581s7.738 116.768 12.943 133.79c16.882 56.555 76.671 75.687 131.816 69.497 2.813-.422 5.627-.844 8.581-1.126-2.813.423-5.768.845-8.581 1.126-80.751 11.958-152.635 41.36-58.383 146.17 103.54 107.2 141.947-22.93 161.646-89.048 19.695 65.98 42.345 191.47 159.671 89.049 88.21-89.049 24.198-134.21-56.554-146.171-2.813-.281-5.768-.704-8.581-1.126 2.954.423 5.768.704 8.581 1.126 55.147 6.19 115.075-12.943 131.816-69.496 5.064-17.163 12.943-119.58 12.943-133.79s-2.814-38.406-18.57-45.582c-13.646-6.19-34.327-12.801-88.766 25.604-57.257 40.235-118.315 121.547-140.819 165.16Z"/></svg>